<mxfile host="Electron" modified="2024-08-08T09:00:52.790Z" agent="Mozilla/5.0 (X11; Linux x86_64) AppleWebKit/537.36 (KHTML, like Gecko) draw.io/23.0.2 Chrome/120.0.6099.109 Electron/28.1.0 Safari/537.36" etag="1MSMR-R6TDADKUIC27fY" version="23.0.2" type="device">
  <diagram name="Page-1" id="dDATwdXApkh_-1oHt_sz">
    <mxGraphModel dx="324" dy="591" grid="1" gridSize="10" guides="1" tooltips="1" connect="1" arrows="1" fold="1" page="1" pageScale="1" pageWidth="850" pageHeight="1100" math="0" shadow="0">
      <root>
        <mxCell id="0" />
        <mxCell id="1" parent="0" />
        <mxCell id="8k3I4b0zeFeppYjZgdu7-178" value="" style="rounded=0;whiteSpace=wrap;html=1;fillColor=default;" parent="1" vertex="1">
          <mxGeometry x="600" y="107" width="290" height="120" as="geometry" />
        </mxCell>
        <mxCell id="8k3I4b0zeFeppYjZgdu7-190" value="" style="rounded=0;whiteSpace=wrap;html=1;dashed=1;dashPattern=1 4;fillColor=none;" parent="1" vertex="1">
          <mxGeometry x="700" y="125" width="88.5" height="86" as="geometry" />
        </mxCell>
        <mxCell id="8k3I4b0zeFeppYjZgdu7-191" value="" style="rounded=0;whiteSpace=wrap;html=1;dashed=1;dashPattern=1 4;fillColor=none;" parent="1" vertex="1">
          <mxGeometry x="606" y="125" width="88.5" height="86" as="geometry" />
        </mxCell>
        <mxCell id="8k3I4b0zeFeppYjZgdu7-177" value="&lt;font face=&quot;newcomputermodern&quot;&gt;Operating system&lt;/font&gt;" style="rounded=0;whiteSpace=wrap;html=1;" parent="1" vertex="1">
          <mxGeometry x="590" y="220" width="310" height="30" as="geometry" />
        </mxCell>
        <mxCell id="8k3I4b0zeFeppYjZgdu7-187" value="" style="rounded=0;whiteSpace=wrap;html=1;dashed=1;dashPattern=1 4;" parent="1" vertex="1">
          <mxGeometry x="796" y="125" width="88.5" height="86" as="geometry" />
        </mxCell>
        <mxCell id="8k3I4b0zeFeppYjZgdu7-12" value="&lt;font face=&quot;newcomputermodern&quot;&gt;Hypervisor&lt;/font&gt;" style="rounded=0;whiteSpace=wrap;html=1;" parent="1" vertex="1">
          <mxGeometry x="310" y="190" width="260" height="30" as="geometry" />
        </mxCell>
        <mxCell id="8k3I4b0zeFeppYjZgdu7-1" value="&lt;font face=&quot;newcomputermodern&quot;&gt;Guest OS&lt;/font&gt;" style="rounded=0;whiteSpace=wrap;html=1;" parent="1" vertex="1">
          <mxGeometry x="310" y="166" width="80" height="30" as="geometry" />
        </mxCell>
        <mxCell id="8k3I4b0zeFeppYjZgdu7-4" value="&lt;font face=&quot;newcomputermodern&quot;&gt;Hardware&lt;/font&gt;" style="rounded=0;whiteSpace=wrap;html=1;" parent="1" vertex="1">
          <mxGeometry x="310" y="250" width="260" height="30" as="geometry" />
        </mxCell>
        <mxCell id="8k3I4b0zeFeppYjZgdu7-10" value="&lt;font face=&quot;newcomputermodern&quot;&gt;Operating system&lt;/font&gt;" style="rounded=0;whiteSpace=wrap;html=1;" parent="1" vertex="1">
          <mxGeometry x="310" y="220" width="260" height="30" as="geometry" />
        </mxCell>
        <mxCell id="8k3I4b0zeFeppYjZgdu7-144" value="" style="endArrow=none;dashed=1;html=1;dashPattern=1 4;strokeWidth=1;rounded=0;" parent="1" edge="1">
          <mxGeometry width="50" height="50" relative="1" as="geometry">
            <mxPoint x="490" y="190" as="sourcePoint" />
            <mxPoint x="570" y="190" as="targetPoint" />
          </mxGeometry>
        </mxCell>
        <mxCell id="8k3I4b0zeFeppYjZgdu7-145" value="" style="endArrow=none;dashed=1;html=1;dashPattern=1 4;strokeWidth=1;rounded=0;" parent="1" edge="1">
          <mxGeometry width="50" height="50" relative="1" as="geometry">
            <mxPoint x="400" y="190" as="sourcePoint" />
            <mxPoint x="480" y="190" as="targetPoint" />
          </mxGeometry>
        </mxCell>
        <mxCell id="8k3I4b0zeFeppYjZgdu7-146" value="" style="endArrow=none;dashed=1;html=1;dashPattern=1 4;strokeWidth=1;rounded=0;" parent="1" edge="1">
          <mxGeometry width="50" height="50" relative="1" as="geometry">
            <mxPoint x="310" y="190" as="sourcePoint" />
            <mxPoint x="390" y="190" as="targetPoint" />
          </mxGeometry>
        </mxCell>
        <mxCell id="8k3I4b0zeFeppYjZgdu7-147" value="" style="endArrow=none;dashed=1;html=1;dashPattern=1 4;strokeWidth=1;rounded=0;" parent="1" edge="1">
          <mxGeometry width="50" height="50" relative="1" as="geometry">
            <mxPoint x="310" y="226" as="sourcePoint" />
            <mxPoint x="570" y="226" as="targetPoint" />
          </mxGeometry>
        </mxCell>
        <mxCell id="8k3I4b0zeFeppYjZgdu7-148" value="&lt;pre&gt;&lt;font face=&quot;newcomputermodern&quot;&gt;/lib &amp;amp; /bin&lt;/font&gt;&lt;/pre&gt;" style="rounded=0;whiteSpace=wrap;html=1;" parent="1" vertex="1">
          <mxGeometry x="310" y="137" width="80" height="30" as="geometry" />
        </mxCell>
        <mxCell id="8k3I4b0zeFeppYjZgdu7-149" value="&lt;font face=&quot;newcomputermodern&quot;&gt;Application&lt;/font&gt;" style="rounded=0;whiteSpace=wrap;html=1;" parent="1" vertex="1">
          <mxGeometry x="310" y="107" width="80" height="30" as="geometry" />
        </mxCell>
        <mxCell id="8k3I4b0zeFeppYjZgdu7-150" value="&lt;font face=&quot;newcomputermodern&quot;&gt;Guest OS&lt;/font&gt;" style="rounded=0;whiteSpace=wrap;html=1;" parent="1" vertex="1">
          <mxGeometry x="400" y="166" width="80" height="30" as="geometry" />
        </mxCell>
        <mxCell id="8k3I4b0zeFeppYjZgdu7-151" value="" style="endArrow=none;dashed=1;html=1;dashPattern=1 4;strokeWidth=1;rounded=0;" parent="1" edge="1">
          <mxGeometry width="50" height="50" relative="1" as="geometry">
            <mxPoint x="400" y="190" as="sourcePoint" />
            <mxPoint x="480" y="190" as="targetPoint" />
          </mxGeometry>
        </mxCell>
        <mxCell id="8k3I4b0zeFeppYjZgdu7-152" value="&lt;pre&gt;&lt;font face=&quot;newcomputermodern&quot;&gt;/lib &amp;amp; /bin&lt;/font&gt;&lt;/pre&gt;" style="rounded=0;whiteSpace=wrap;html=1;" parent="1" vertex="1">
          <mxGeometry x="400" y="137" width="80" height="30" as="geometry" />
        </mxCell>
        <mxCell id="8k3I4b0zeFeppYjZgdu7-153" value="&lt;font face=&quot;newcomputermodern&quot;&gt;Application&lt;/font&gt;" style="rounded=0;whiteSpace=wrap;html=1;" parent="1" vertex="1">
          <mxGeometry x="400" y="107" width="80" height="30" as="geometry" />
        </mxCell>
        <mxCell id="8k3I4b0zeFeppYjZgdu7-154" value="&lt;font face=&quot;newcomputermodern&quot;&gt;Guest OS&lt;/font&gt;" style="rounded=0;whiteSpace=wrap;html=1;" parent="1" vertex="1">
          <mxGeometry x="490" y="166" width="80" height="30" as="geometry" />
        </mxCell>
        <mxCell id="8k3I4b0zeFeppYjZgdu7-155" value="" style="endArrow=none;dashed=1;html=1;dashPattern=1 4;strokeWidth=1;rounded=0;" parent="1" edge="1">
          <mxGeometry width="50" height="50" relative="1" as="geometry">
            <mxPoint x="490" y="190" as="sourcePoint" />
            <mxPoint x="570" y="190" as="targetPoint" />
          </mxGeometry>
        </mxCell>
        <mxCell id="8k3I4b0zeFeppYjZgdu7-156" value="&lt;pre&gt;&lt;font face=&quot;newcomputermodern&quot;&gt;/lib &amp;amp; /bin&lt;/font&gt;&lt;/pre&gt;" style="rounded=0;whiteSpace=wrap;html=1;" parent="1" vertex="1">
          <mxGeometry x="490" y="137" width="80" height="30" as="geometry" />
        </mxCell>
        <mxCell id="8k3I4b0zeFeppYjZgdu7-157" value="&lt;font face=&quot;newcomputermodern&quot;&gt;Application&lt;/font&gt;" style="rounded=0;whiteSpace=wrap;html=1;" parent="1" vertex="1">
          <mxGeometry x="490" y="107" width="80" height="30" as="geometry" />
        </mxCell>
        <mxCell id="8k3I4b0zeFeppYjZgdu7-160" value="&lt;font face=&quot;newcomputermodern&quot;&gt;Hardware&lt;/font&gt;" style="rounded=0;whiteSpace=wrap;html=1;" parent="1" vertex="1">
          <mxGeometry x="30" y="250" width="260" height="30" as="geometry" />
        </mxCell>
        <mxCell id="8k3I4b0zeFeppYjZgdu7-161" value="&lt;font face=&quot;newcomputermodern&quot;&gt;Hypervisor&lt;/font&gt;" style="rounded=0;whiteSpace=wrap;html=1;" parent="1" vertex="1">
          <mxGeometry x="30" y="220" width="260" height="30" as="geometry" />
        </mxCell>
        <mxCell id="8k3I4b0zeFeppYjZgdu7-162" value="" style="endArrow=none;dashed=1;html=1;dashPattern=1 4;strokeWidth=1;rounded=0;" parent="1" edge="1">
          <mxGeometry width="50" height="50" relative="1" as="geometry">
            <mxPoint x="210" y="190" as="sourcePoint" />
            <mxPoint x="290" y="190" as="targetPoint" />
          </mxGeometry>
        </mxCell>
        <mxCell id="8k3I4b0zeFeppYjZgdu7-163" value="" style="endArrow=none;dashed=1;html=1;dashPattern=1 4;strokeWidth=1;rounded=0;" parent="1" edge="1">
          <mxGeometry width="50" height="50" relative="1" as="geometry">
            <mxPoint x="120" y="190" as="sourcePoint" />
            <mxPoint x="200" y="190" as="targetPoint" />
          </mxGeometry>
        </mxCell>
        <mxCell id="8k3I4b0zeFeppYjZgdu7-165" value="" style="endArrow=none;dashed=1;html=1;dashPattern=1 4;strokeWidth=1;rounded=0;" parent="1" edge="1">
          <mxGeometry width="50" height="50" relative="1" as="geometry">
            <mxPoint x="30" y="256" as="sourcePoint" />
            <mxPoint x="290" y="256" as="targetPoint" />
          </mxGeometry>
        </mxCell>
        <mxCell id="8k3I4b0zeFeppYjZgdu7-159" value="&lt;font face=&quot;newcomputermodern&quot;&gt;Guest OS&lt;/font&gt;" style="rounded=0;whiteSpace=wrap;html=1;" parent="1" vertex="1">
          <mxGeometry x="30" y="196" width="80" height="30" as="geometry" />
        </mxCell>
        <mxCell id="8k3I4b0zeFeppYjZgdu7-164" value="" style="endArrow=none;dashed=1;html=1;dashPattern=1 4;strokeWidth=1;rounded=0;" parent="1" edge="1">
          <mxGeometry width="50" height="50" relative="1" as="geometry">
            <mxPoint x="30" y="220" as="sourcePoint" />
            <mxPoint x="110" y="220" as="targetPoint" />
          </mxGeometry>
        </mxCell>
        <mxCell id="8k3I4b0zeFeppYjZgdu7-166" value="&lt;pre&gt;&lt;font face=&quot;newcomputermodern&quot;&gt;/lib &amp;amp; /bin&lt;/font&gt;&lt;/pre&gt;" style="rounded=0;whiteSpace=wrap;html=1;" parent="1" vertex="1">
          <mxGeometry x="30" y="167" width="80" height="30" as="geometry" />
        </mxCell>
        <mxCell id="8k3I4b0zeFeppYjZgdu7-167" value="&lt;font face=&quot;newcomputermodern&quot;&gt;Application&lt;/font&gt;" style="rounded=0;whiteSpace=wrap;html=1;" parent="1" vertex="1">
          <mxGeometry x="30" y="137" width="80" height="30" as="geometry" />
        </mxCell>
        <mxCell id="8k3I4b0zeFeppYjZgdu7-168" value="&lt;font face=&quot;newcomputermodern&quot;&gt;Guest OS&lt;/font&gt;" style="rounded=0;whiteSpace=wrap;html=1;" parent="1" vertex="1">
          <mxGeometry x="120" y="196" width="80" height="30" as="geometry" />
        </mxCell>
        <mxCell id="8k3I4b0zeFeppYjZgdu7-169" value="" style="endArrow=none;dashed=1;html=1;dashPattern=1 4;strokeWidth=1;rounded=0;" parent="1" edge="1">
          <mxGeometry width="50" height="50" relative="1" as="geometry">
            <mxPoint x="120" y="220" as="sourcePoint" />
            <mxPoint x="200" y="220" as="targetPoint" />
          </mxGeometry>
        </mxCell>
        <mxCell id="8k3I4b0zeFeppYjZgdu7-170" value="&lt;pre&gt;&lt;font face=&quot;newcomputermodern&quot;&gt;/lib &amp;amp; /bin&lt;/font&gt;&lt;/pre&gt;" style="rounded=0;whiteSpace=wrap;html=1;" parent="1" vertex="1">
          <mxGeometry x="120" y="167" width="80" height="30" as="geometry" />
        </mxCell>
        <mxCell id="8k3I4b0zeFeppYjZgdu7-171" value="&lt;font face=&quot;newcomputermodern&quot;&gt;Application&lt;/font&gt;" style="rounded=0;whiteSpace=wrap;html=1;" parent="1" vertex="1">
          <mxGeometry x="120" y="137" width="80" height="30" as="geometry" />
        </mxCell>
        <mxCell id="8k3I4b0zeFeppYjZgdu7-172" value="&lt;font face=&quot;newcomputermodern&quot;&gt;Guest OS&lt;/font&gt;" style="rounded=0;whiteSpace=wrap;html=1;" parent="1" vertex="1">
          <mxGeometry x="210" y="196" width="80" height="30" as="geometry" />
        </mxCell>
        <mxCell id="8k3I4b0zeFeppYjZgdu7-173" value="" style="endArrow=none;dashed=1;html=1;dashPattern=1 4;strokeWidth=1;rounded=0;" parent="1" edge="1">
          <mxGeometry width="50" height="50" relative="1" as="geometry">
            <mxPoint x="210" y="220" as="sourcePoint" />
            <mxPoint x="290" y="220" as="targetPoint" />
          </mxGeometry>
        </mxCell>
        <mxCell id="8k3I4b0zeFeppYjZgdu7-174" value="&lt;pre&gt;&lt;font face=&quot;newcomputermodern&quot;&gt;/lib &amp;amp; /bin&lt;/font&gt;&lt;/pre&gt;" style="rounded=0;whiteSpace=wrap;html=1;" parent="1" vertex="1">
          <mxGeometry x="210" y="167" width="80" height="30" as="geometry" />
        </mxCell>
        <mxCell id="8k3I4b0zeFeppYjZgdu7-175" value="&lt;font face=&quot;newcomputermodern&quot;&gt;Application&lt;/font&gt;" style="rounded=0;whiteSpace=wrap;html=1;" parent="1" vertex="1">
          <mxGeometry x="210" y="137" width="80" height="30" as="geometry" />
        </mxCell>
        <mxCell id="8k3I4b0zeFeppYjZgdu7-176" value="&lt;font face=&quot;newcomputermodern&quot;&gt;Hardware&lt;/font&gt;" style="rounded=0;whiteSpace=wrap;html=1;" parent="1" vertex="1">
          <mxGeometry x="590" y="250" width="310" height="30" as="geometry" />
        </mxCell>
        <mxCell id="8k3I4b0zeFeppYjZgdu7-180" value="&lt;font face=&quot;newcomputermodern&quot;&gt;Container engine&lt;/font&gt;" style="text;html=1;strokeColor=none;fillColor=none;align=center;verticalAlign=middle;whiteSpace=wrap;rounded=0;" parent="1" vertex="1">
          <mxGeometry x="669" y="100" width="160" height="30" as="geometry" />
        </mxCell>
        <mxCell id="8k3I4b0zeFeppYjZgdu7-181" value="&lt;pre&gt;&lt;font face=&quot;newcomputermodern&quot;&gt;/lib &amp;amp; /bin&lt;/font&gt;&lt;/pre&gt;" style="rounded=0;whiteSpace=wrap;html=1;fillColor=default;" parent="1" vertex="1">
          <mxGeometry x="610" y="177" width="174" height="30" as="geometry" />
        </mxCell>
        <mxCell id="8k3I4b0zeFeppYjZgdu7-182" value="&lt;font face=&quot;newcomputermodern&quot;&gt;Application&lt;/font&gt;" style="rounded=0;whiteSpace=wrap;html=1;" parent="1" vertex="1">
          <mxGeometry x="610" y="141" width="80" height="30" as="geometry" />
        </mxCell>
        <mxCell id="8k3I4b0zeFeppYjZgdu7-184" value="&lt;font face=&quot;newcomputermodern&quot;&gt;Application&lt;/font&gt;" style="rounded=0;whiteSpace=wrap;html=1;" parent="1" vertex="1">
          <mxGeometry x="703" y="141" width="80" height="30" as="geometry" />
        </mxCell>
        <mxCell id="8k3I4b0zeFeppYjZgdu7-185" value="&lt;pre&gt;&lt;font face=&quot;newcomputermodern&quot;&gt;/lib &amp;amp; /bin&lt;/font&gt;&lt;/pre&gt;" style="rounded=0;whiteSpace=wrap;html=1;" parent="1" vertex="1">
          <mxGeometry x="800" y="177" width="80" height="30" as="geometry" />
        </mxCell>
        <mxCell id="8k3I4b0zeFeppYjZgdu7-186" value="&lt;font face=&quot;newcomputermodern&quot;&gt;Application&lt;/font&gt;" style="rounded=0;whiteSpace=wrap;html=1;" parent="1" vertex="1">
          <mxGeometry x="800" y="141" width="80" height="30" as="geometry" />
        </mxCell>
        <mxCell id="8k3I4b0zeFeppYjZgdu7-193" value="&lt;font face=&quot;newcomputermodern&quot;&gt;Container&lt;/font&gt;" style="text;html=1;strokeColor=none;fillColor=none;align=center;verticalAlign=middle;whiteSpace=wrap;rounded=0;" parent="1" vertex="1">
          <mxGeometry x="625" y="116" width="50" height="30" as="geometry" />
        </mxCell>
        <mxCell id="8k3I4b0zeFeppYjZgdu7-194" value="&lt;font face=&quot;newcomputermodern&quot;&gt;Container&lt;/font&gt;" style="text;html=1;strokeColor=none;fillColor=none;align=center;verticalAlign=middle;whiteSpace=wrap;rounded=0;" parent="1" vertex="1">
          <mxGeometry x="718" y="116" width="50" height="30" as="geometry" />
        </mxCell>
        <mxCell id="8k3I4b0zeFeppYjZgdu7-195" value="&lt;font face=&quot;newcomputermodern&quot;&gt;Container&lt;/font&gt;" style="text;html=1;strokeColor=none;fillColor=none;align=center;verticalAlign=middle;whiteSpace=wrap;rounded=0;" parent="1" vertex="1">
          <mxGeometry x="818" y="116" width="50" height="30" as="geometry" />
        </mxCell>
      </root>
    </mxGraphModel>
  </diagram>
</mxfile>
